<svg xmlns="http://www.w3.org/2000/svg" xmlns:xlink="http://www.w3.org/1999/xlink" id="Capa_1" x="0px" y="0px" viewBox="0 0 393 332" style="enable-background:new 0 0 393 332;" xml:space="preserve"><style type="text/css">	.st0{fill:#54C0E8;}	.st1{fill:#C0DC60;stroke:#C0DC60;stroke-width:3;stroke-miterlimit:10;}	.st2{fill:#1F3C54;}	.st3{fill:url(#SVGID_1_);}	.st4{fill:#FF8110;}	.st5{fill:url(#SVGID_2_);}	.st6{fill:#00AA31;}	.st7{fill:url(#SVGID_3_);}	.st8{fill:#FFC000;}	.st9{fill:url(#SVGID_4_);}	.st10{fill:url(#SVGID_5_);}	.st11{fill:url(#SVGID_6_);}	.st12{fill:url(#SVGID_7_);}	.st13{fill:url(#SVGID_8_);}	.st14{fill:url(#SVGID_9_);}	.st15{fill:url(#SVGID_10_);}	.st16{fill:#007CAA;}	.st17{fill:url(#SVGID_11_);}	.st18{fill:url(#SVGID_12_);}	.st19{fill:url(#SVGID_13_);}	.st20{fill:url(#SVGID_14_);}	.st21{fill:url(#SVGID_15_);}	.st22{fill:url(#SVGID_16_);}	.st23{fill:url(#SVGID_17_);}	.st24{fill:url(#SVGID_18_);}	.st25{fill:url(#SVGID_19_);}	.st26{fill:url(#SVGID_20_);}	.st27{fill:url(#SVGID_21_);}	.st28{fill:url(#SVGID_22_);}	.st29{fill:url(#SVGID_23_);}	.st30{fill:url(#SVGID_24_);}	.st31{fill:none;stroke:#1F3C54;stroke-width:6;stroke-miterlimit:10;}	.st32{fill:url(#SVGID_25_);}	.st33{fill:url(#SVGID_26_);}	.st34{fill:#FFFFFF;}</style><g>	<linearGradient id="SVGID_1_" gradientUnits="userSpaceOnUse" x1="89.4681" y1="178.1526" x2="392.8741" y2="178.1526">		<stop offset="0" style="stop-color:#1F3C54"></stop>		<stop offset="0.1082" style="stop-color:#1B4560"></stop>		<stop offset="0.4997" style="stop-color:#0C6388"></stop>		<stop offset="0.8105" style="stop-color:#0375A1"></stop>		<stop offset="1" style="stop-color:#007CAA"></stop>	</linearGradient>	<path class="st3" d="M241.2,26.4c-32.3,0-62.2,10.1-86.8,27.3c3,8.3,4.6,17.3,4.6,26.6c0,14.8-4,28.6-11.1,40.5  c19.3-31.3,53.8-52.1,93.3-52.1c60.5,0,109.5,49,109.5,109.5s-49,109.5-109.5,109.5s-109.5-49-109.5-109.5  c0-20.5,5.6-39.7,15.4-56.1c-12.2,19.6-32.6,33.6-56.5,36.9c-0.8,6.3-1.2,12.7-1.2,19.2c0,83.8,67.9,151.7,151.7,151.7  s151.7-67.9,151.7-151.7S325,26.4,241.2,26.4z"></path>	<path class="st4" d="M147.9,120.8c-0.3,0.4-0.5,0.8-0.8,1.2C147.4,121.7,147.7,121.3,147.9,120.8z"></path>	<linearGradient id="SVGID_2_" gradientUnits="userSpaceOnUse" x1="0.1903" y1="80.3518" x2="154.4064" y2="80.3518">		<stop offset="0" style="stop-color:#FF8110"></stop>		<stop offset="1" style="stop-color:#FFC000"></stop>	</linearGradient>	<path class="st5" d="M154.4,53.7C143.5,23,114.1,1,79.6,1C35.7,1,0.2,36.5,0.2,80.4c0,43.9,35.5,79.4,79.4,79.4  c3.8,0,7.5-0.3,11.1-0.8C96.2,115.4,120.1,77.7,154.4,53.7z"></path></g></svg>