<svg xmlns="http://www.w3.org/2000/svg" xmlns:xlink="http://www.w3.org/1999/xlink" id="Capa_1" x="0px" y="0px" viewBox="0 0 748.5 332" style="enable-background:new 0 0 748.5 332;" xml:space="preserve"><style type="text/css">	.st0{fill:#54C0E8;}	.st1{fill:#C0DC60;stroke:#C0DC60;stroke-width:3;stroke-miterlimit:10;}	.st2{fill:#1F3C54;}	.st3{fill:url(#SVGID_1_);}	.st4{fill:#FF8110;}	.st5{fill:url(#SVGID_2_);}	.st6{fill:#00AA31;}	.st7{fill:url(#SVGID_3_);}	.st8{fill:#FFC000;}	.st9{fill:url(#SVGID_4_);}	.st10{fill:url(#SVGID_5_);}	.st11{fill:url(#SVGID_6_);}	.st12{fill:url(#SVGID_7_);}	.st13{fill:url(#SVGID_8_);}	.st14{fill:url(#SVGID_9_);}	.st15{fill:url(#SVGID_10_);}	.st16{fill:#007CAA;}	.st17{fill:url(#SVGID_11_);}	.st18{fill:url(#SVGID_12_);}	.st19{fill:url(#SVGID_13_);}	.st20{fill:url(#SVGID_14_);}	.st21{fill:url(#SVGID_15_);}	.st22{fill:url(#SVGID_16_);}	.st23{fill:url(#SVGID_17_);}	.st24{fill:url(#SVGID_18_);}	.st25{fill:url(#SVGID_19_);}	.st26{fill:url(#SVGID_20_);}	.st27{fill:url(#SVGID_21_);}	.st28{fill:url(#SVGID_22_);}	.st29{fill:none;stroke:#1F3C54;stroke-width:6;stroke-miterlimit:10;}	.st30{fill:url(#SVGID_23_);}	.st31{fill:url(#SVGID_24_);}	.st32{fill:#FFFFFF;}</style><g>	<linearGradient id="SVGID_1_" gradientUnits="userSpaceOnUse" x1="89.4681" y1="178.1526" x2="392.8741" y2="178.1526">		<stop offset="0" style="stop-color:#1F3C54"></stop>		<stop offset="0.1082" style="stop-color:#1B4560"></stop>		<stop offset="0.4997" style="stop-color:#0C6388"></stop>		<stop offset="0.8105" style="stop-color:#0375A1"></stop>		<stop offset="1" style="stop-color:#007CAA"></stop>	</linearGradient>	<path class="st3" d="M241.2,26.4c-32.3,0-62.2,10.1-86.8,27.3c3,8.3,4.6,17.3,4.6,26.6c0,14.8-4,28.6-11.1,40.5  c19.3-31.3,53.8-52.1,93.3-52.1c60.5,0,109.5,49,109.5,109.5s-49,109.5-109.5,109.5s-109.5-49-109.5-109.5  c0-20.5,5.6-39.7,15.4-56.1c-12.2,19.6-32.6,33.6-56.5,36.9c-0.8,6.3-1.2,12.7-1.2,19.2c0,83.8,67.9,151.7,151.7,151.7  s151.7-67.9,151.7-151.7S325,26.4,241.2,26.4z"></path>	<path class="st4" d="M147.9,120.8c-0.3,0.4-0.5,0.8-0.8,1.2C147.4,121.7,147.7,121.3,147.9,120.8z"></path>	<linearGradient id="SVGID_2_" gradientUnits="userSpaceOnUse" x1="0.1903" y1="80.3518" x2="154.4064" y2="80.3518">		<stop offset="0" style="stop-color:#FF8110"></stop>		<stop offset="1" style="stop-color:#FFC000"></stop>	</linearGradient>	<path class="st5" d="M154.4,53.7C143.5,23,114.1,1,79.6,1C35.7,1,0.2,36.5,0.2,80.4c0,43.9,35.5,79.4,79.4,79.4  c3.8,0,7.5-0.3,11.1-0.8C96.2,115.4,120.1,77.7,154.4,53.7z"></path></g><g>	<g>		<path class="st2" d="M526.8,172c0,21.1-14.5,35.3-36.2,35.3h-49.4V82.9H487c20.8,0,34.9,12.9,34.9,33.7c0,11.4-6,20.3-14.9,26.1   C518.2,147.8,526.8,157.9,526.8,172z M460.4,137.8h24.3c10.9,0,18.2-7.5,18.2-18.6c0-11.2-7.6-18.6-18.8-18.6h-23.6V137.8z    M506.8,170.3c0-11.2-8.4-18.9-21.2-18.9h-25.3v38.2h25.3C498.4,189.6,506.8,181.9,506.8,170.3z"></path>		<linearGradient id="SVGID_3_" gradientUnits="userSpaceOnUse" x1="534.116" y1="145.1128" x2="635.7875" y2="145.1128">			<stop offset="0" style="stop-color:#1F3C54"></stop>			<stop offset="0.1082" style="stop-color:#1B4560"></stop>			<stop offset="0.4997" style="stop-color:#0C6388"></stop>			<stop offset="0.8105" style="stop-color:#0375A1"></stop>			<stop offset="1" style="stop-color:#007CAA"></stop>		</linearGradient>		<path class="st7" d="M534.1,145.1c0-38.3,24.3-63.9,60.3-63.9c16.7,0,31.1,5.3,41.3,14l-7.6,15.8c-8.4-7.3-19.8-12.3-32.7-12.3   c-25.3,0-41,18.6-41,46.3c0,27.9,15.7,46.3,41,46.3c12.4,0,23.8-4.4,32.7-12.3l7.4,16.2c-10.4,8.5-24.6,13.6-41.2,13.6   C558.4,209,534.1,183.4,534.1,145.1z"></path>		<path class="st16" d="M746.9,82.9v126.9h-1.7l-77-82.8v80.2H649V80.4h1.7l77,84V82.9H746.9z"></path>	</g>	<g>		<path class="st4" d="M440,228.1h34v6.6h-26.8V255H472v6.6h-24.7v21.7h27.2v6.6H440V228.1z"></path>		<path class="st4" d="M529.8,228.1v63.2H529l-39.6-46.7v45.3h-7.2v-63.2h0.8l39.6,47.1v-45.6H529.8z"></path>		<path class="st4" d="M539,228.1h34v6.6h-26.8V255H571v6.6h-24.7v21.7h27.2v6.6H539V228.1z"></path>		<linearGradient id="SVGID_4_" gradientUnits="userSpaceOnUse" x1="581.1818" y1="259.0172" x2="623.9166" y2="259.0172">			<stop offset="0" style="stop-color:#FF8110"></stop>			<stop offset="1" style="stop-color:#FFC000"></stop>		</linearGradient>		<path class="st9" d="M615.5,289.9l-12.6-21.8c-0.8,0.1-1.6,0.2-2.5,0.2h-11.9v21.7h-7.2v-61.8h18.7c11.9,0,20.1,8,20.1,20   c0,8.6-4,15.1-10.5,18.2l14.5,23.6H615.5z M612.7,248.3c0-8.4-5.4-13.5-14.6-13.5h-9.6v26.8h10.1   C607.4,261.6,612.7,256.5,612.7,248.3z"></path>		<path class="st8" d="M676.5,258.8v25.8c-5,3.5-13.1,6.1-21.6,6.1c-17.9,0-29.9-12.7-29.9-31.8c0-19.1,12-31.8,29.9-31.8   c8.2,0,15.4,2.8,20.5,7.2l-3.1,5.9c-4.4-4-10.3-6.4-17.1-6.4c-13.7,0-22.5,10.1-22.5,25.1c0,15.1,8.8,25.1,22.5,25.1   c5.2,0,10.5-1.3,14.1-3.1v-15.5h-14.1v-6.6H676.5z"></path>		<path class="st8" d="M684.6,228.1h7.2v61.8h-7.2V228.1z"></path>		<path class="st8" d="M734.7,274.5h-26.1l-6.2,15.4h-7.2l25.9-63.5h1.2l25.9,63.5h-7.2L734.7,274.5z M721.6,241.6l-10.5,26.3h21   L721.6,241.6z"></path>	</g></g></svg>