<svg xmlns="http://www.w3.org/2000/svg" xmlns:xlink="http://www.w3.org/1999/xlink" id="Capa_1" x="0px" y="0px" viewBox="0 0 608.2 608" xml:space="preserve"><linearGradient id="SVGID_1_" gradientUnits="userSpaceOnUse" x1="3.4376" y1="303.7729" x2="604.3824" y2="303.7729">	<stop offset="0" style="stop-color:#FF8110"></stop>	<stop offset="1" style="stop-color:#FFC000"></stop></linearGradient><path fill="url(#SVGID_1_)" d="M303.9,3.3C138,3.3,3.4,137.8,3.4,303.8S138,604.2,303.9,604.2c165.9,0,300.5-134.5,300.5-300.5 S469.9,3.3,303.9,3.3z M303.9,578.7c-151.9,0-275-123.1-275-275c0-151.9,123.1-275,275-275c151.9,0,275,123.1,275,275 C578.9,455.6,455.8,578.7,303.9,578.7z"></path><linearGradient id="SVGID_2_" gradientUnits="userSpaceOnUse" x1="143.9583" y1="303.9692" x2="464.2732" y2="303.9692">	<stop offset="0" style="stop-color:#FF8110"></stop>	<stop offset="1" style="stop-color:#FFC000"></stop></linearGradient><path fill="url(#SVGID_2_)" d="M453.8,195.9c-13.2-34.9-38.3-64-70.7-82.4c-32.5-18.4-70.3-24.9-107-18.4 c-36.7,6.5-70,25.7-94.1,54.1c-24.1,28.5-37.5,64.4-38,101.7c-0.5,27.7,6.4,55.1,19.8,79.3c13.4,24.3,32.9,44.6,56.7,59 c6.7,4,10.8,11.2,10.9,18.9l0,41.5c0,9.7,3.8,18.9,10.7,25.7c6.8,6.8,16.1,10.7,25.7,10.7h0.7c2.2,11.1,9.5,20.4,19.6,25.4 c10.1,5,22,5,32.1,0c10.1-5,17.4-14.4,19.6-25.4h0.7c9.7,0,18.9-3.8,25.7-10.7c6.8-6.8,10.7-16.1,10.7-25.7v-41.5 c0.1-7.8,4.3-14.9,10.9-18.9c31.8-19.5,55.8-49.5,67.8-84.8C467.7,269.2,467.1,230.8,453.8,195.9z M319.1,486.1 c-0.8,0.8-1.7,1.5-2.6,2.1c-3.6,2.5-7.9,3.8-12.3,3.7l0,0c-4.3,0-8.4-1.4-11.9-3.9c-0.8-0.6-1.6-1.2-2.3-1.9H319.1z M359.8,443.3 c0,5.5-2.2,10.8-6.1,14.8c-3.9,3.9-9.2,6.1-14.8,6.1h-69.6c-5.5,0-10.8-2.2-14.8-6.1c-3.9-3.9-6.1-9.2-6.1-14.8v-22.6h111.3 L359.8,443.3z M321.5,263.9l24.4-14.8c12.3-8.1,23.7-17.4,34.1-27.8c-0.2,0.1-0.4,0.1-0.6,0.2c1.4-1.3,2.8-2.7,4.1-4 c-14.8,4.1-29.2,9.7-43,16.7l0,0l-27.7,15.3c0-0.4,0.1-0.7,0.2-1.1c3.4-18.3,15.4-34.1,32.3-42.2c18-8.6,39.2-7.4,56.2,3.2 c0.8,20.2-8.9,39.3-25.6,50.6c-0.3,0.2-0.5,0.3-0.8,0.5C358.8,269.9,339,271.2,321.5,263.9z M231.6,260.1 c-16.7-11.3-26.4-30.4-25.6-50.6c16.9-10.6,38.1-11.8,56.2-3.2c16.8,8,28.7,23.5,32.2,41.6c0.1,0.6,0.2,1.1,0.2,1.7l-26.9-15.3 c-13.5-7-27.6-12.6-42.2-16.7c1.3,1.4,2.7,2.7,4,4c-0.2-0.1-0.4-0.1-0.5-0.2c10.2,10.4,21.4,19.7,33.4,27.8v0l23.7,14.7 c-17.4,7.3-37.1,6-53.4-3.1C232.3,260.6,232,260.4,231.6,260.1z M311.4,401.5V277.2c15.4,7.6,33,9.5,49.7,5.3c3-0.8,6-1.7,8.9-2.9 c15-5.2,28-14.9,37.2-27.9c10.4-14.8,15.2-32.8,13.5-50.9c-0.2-2-1.3-3.9-2.9-5.1c-18.5-13.4-42-17.7-64.1-11.8 c-22,5.9-40.2,21.5-49.5,42.3c-9.2-20.7-27.2-36.3-49-42.4c-21.9-6.1-45.3-2-63.8,11c-1.6,1.2-2.7,3.1-2.9,5.1 c-1.8,18,2.8,36,13.1,50.8c9.1,13.1,22,22.9,36.9,28.2c2.9,1.2,5.8,2.1,8.8,2.9c16.6,4.3,34.2,2.6,49.6-4.8v124.4h-48.4 c-0.9-11.6-7.4-21.9-17.4-27.8l0,0c-20.6-12.5-37.5-30.2-49.1-51.4c-11.6-21.1-17.4-44.9-17-69c0.5-35.2,14.3-69,38.7-94.4 c24.4-25.4,57.6-40.7,92.7-42.6h7.7c30.2,0.1,59.6,10,83.7,28.2c24.1,18.2,41.6,43.9,49.9,72.9c8.3,29.1,6.8,60.1-4.1,88.3 c-10.9,28.2-30.7,52.1-56.4,68c-10,5.9-16.5,16.3-17.4,27.8H311.4z"></path></svg>